# xmcd
#
# Track frame offsets:
#	150
#	16352
#	34274
#	51586
#	66175
#	86434
#	101793
#	121675
#	141416
#	160068
#	180736
#	202474
#	222765
#	242287
#	259540
#
# Disc length: 3716 seconds
#
# Revision: 1
# Processed by: cddbd v1.5.1PL2 Copyright (c) Steve Scherf et al.
# Submitted via: audiograbber 1.83.01
#
DISCID=d70e820f
DTITLE=Ρουβάς Σάκης - Σ έχω ερωτευθεί
DYEAR=2005
DGENRE=Pop
TTITLE0=Σ έχω ερωτευθεί
TTITLE1=Να μ αγαπάς
TTITLE2=Χάρτινη ζωή
TTITLE3=Σπασμένα φιλιά (I'l give you my heart)
TTITLE4=Μίλα της
TTITLE5=Χίλια μίλια
TTITLE6=Προσπαθώ να αλλάξω
TTITLE7=Cairo
TTITLE8=Για σένα εγώ μπορώ
TTITLE9=Ελα να κάνουμε μια ευχή
TTITLE10=Εγώ χωρίς εμένα
TTITLE11=Μες στις βιτρίνες σε κοιτώ
TTITLE12=Οσο είσαι εδώ
TTITLE13=Δώρο στη σιωπή
TTITLE14=Σταμάτα τη βροχή (If I could stop the rain)
EXTD=YEAR: 2005\n
EXTT0=
EXTT1=
EXTT2=
EXTT3=
EXTT4=
EXTT5=
EXTT6=
EXTT7=
EXTT8=
EXTT9=
EXTT10=
EXTT11=
EXTT12=
EXTT13=
EXTT14=
PLAYORDER=
